<?xml version="1.0" standalone="no"?>
<!DOCTYPE svg PUBLIC "-//W3C//DTD SVG 20010904//EN"
 "http://www.w3.org/TR/2001/REC-SVG-20010904/DTD/svg10.dtd">
<svg version="1.0" xmlns="http://www.w3.org/2000/svg"
 width="1125.000000pt" height="1034.000000pt" viewBox="0 0 1125.000000 1034.000000"
 preserveAspectRatio="xMidYMid meet">

<g transform="translate(0.000000,1034.000000) scale(0.100000,-0.100000)"
fill="#000000" stroke="none">
<path d="M8405 10295 c-365 -114 -767 -287 -1047 -453 -263 -157 -543 -422
-717 -680 -165 -246 -279 -506 -356 -815 l-37 -147 118 -112 c220 -212 428
-464 609 -738 129 -196 169 -267 300 -531 59 -118 108 -215 109 -216 1 -1 62
55 136 124 438 407 968 749 1624 1049 209 95 195 76 176 238 -25 222 -92 490
-173 691 -24 61 -99 229 -166 374 -147 317 -214 476 -269 634 -43 121 -137
482 -148 569 -4 27 -9 50 -13 52 -3 2 -69 -15 -146 -39z"/>
<path d="M10000 9211 c0 -5 -115 -126 -255 -269 -140 -143 -255 -265 -255
-271 0 -6 15 -62 34 -124 40 -131 80 -321 97 -459 6 -54 15 -98 19 -98 5 0 49
15 98 34 118 45 383 131 453 146 74 17 138 2 220 -52 34 -21 62 -38 64 -36 7
8 -28 254 -51 356 -65 291 -167 508 -319 685 -58 67 -105 106 -105 88z"/>
<path d="M1070 8464 c-433 -28 -691 -106 -856 -257 -74 -68 -94 -104 -94 -173
0 -81 107 -312 244 -525 90 -139 90 -142 42 -324 -102 -387 -21 -834 226
-1243 115 -191 321 -437 518 -618 96 -88 208 -184 215 -184 2 0 -14 37 -35 83
-111 236 -258 653 -304 857 -49 220 -61 323 -61 530 0 214 12 291 67 450 72
207 189 384 377 570 198 196 410 343 710 493 l165 81 -140 68 c-155 75 -328
136 -479 168 -82 18 -140 22 -320 25 -121 1 -245 1 -275 -1z"/>
<path d="M4370 8463 c-513 -50 -963 -161 -1560 -386 -465 -175 -818 -350
-1035 -512 -105 -78 -241 -214 -293 -292 -94 -139 -165 -314 -193 -473 -17
-95 -17 -340 0 -445 30 -190 125 -523 218 -760 131 -333 333 -664 546 -892 91
-97 115 -106 372 -138 518 -66 919 -224 1425 -560 595 -396 1034 -869 1412
-1521 l64 -111 29 70 c45 107 150 277 195 319 49 44 102 56 151 35 95 -40 393
-298 499 -431 l45 -56 7 27 c26 95 187 815 223 998 56 286 72 411 85 685 30
638 37 739 76 1000 60 407 211 847 369 1070 73 103 125 198 125 227 0 93 -160
445 -335 733 -184 303 -492 689 -680 851 -27 24 -84 75 -125 114 -239 225
-637 391 -1056 440 -116 13 -459 19 -564 8z"/>
<path d="M10197 7853 c-55 -14 -302 -98 -422 -143 -676 -253 -1292 -594 -1788
-989 -144 -115 -415 -378 -495 -481 -236 -306 -395 -632 -492 -1015 -62 -241
-77 -378 -105 -925 -18 -355 -30 -491 -56 -674 -34 -240 -175 -895 -301 -1406
-62 -254 -71 -360 -40 -490 80 -333 278 -539 518 -540 66 0 117 36 163 116
146 254 391 554 617 756 151 135 306 250 537 401 103 67 276 180 385 251 312
203 508 356 852 664 648 582 1038 1066 1330 1651 170 341 265 592 316 836 24
113 28 153 27 300 0 201 -15 274 -109 508 -127 321 -306 608 -523 840 -124
134 -370 350 -391 346 -3 -1 -13 -3 -23 -6z"/>
<path d="M0 4322 c0 -25 53 -189 76 -235 100 -198 321 -391 596 -521 238 -113
602 -241 1407 -497 610 -194 850 -278 1081 -376 628 -268 1272 -689 1814
-1189 65 -60 146 -134 179 -164 l60 -55 -6 32 c-22 110 -28 264 -17 410 7 84
9 170 5 190 -10 53 -138 303 -248 486 -199 329 -388 570 -651 833 -491 491
-960 788 -1485 939 -152 44 -400 85 -509 85 -48 0 -146 7 -219 17 -122 15
-169 16 -600 3 -807 -25 -1125 -14 -1450 46 -20 4 -33 2 -33 -4z"/>
<path d="M5682 2417 c-5 -6 -23 -39 -40 -72 -123 -246 -178 -675 -176 -1385 0
-431 5 -467 78 -616 82 -165 226 -275 428 -326 140 -35 325 -16 454 47 104 51
250 260 444 638 64 123 88 178 78 181 -7 2 -40 9 -73 16 -144 29 -308 122
-413 235 -140 149 -224 321 -291 596 -32 129 -93 268 -161 369 -44 65 -217
250 -281 301 -28 22 -39 26 -47 16z"/>
</g>
</svg>
